# Blender v2.71 (sub 0) OBJ File: ''
# www.blender.org
o cube
v -0.500000 0.500000 -0.500000
v 0.500000 0.500000 -0.500000
v 0.500000 0.500000 0.500000
v 0.500000 -0.500000 0.500000
v 0.500000 -0.500000 -0.500000
v -0.500000 -0.500000 -0.500000
v -0.500000 0.500000 0.500000
v -0.500000 -0.500000 0.500000
vt 1.000000 0.000000
vt 0.000000 1.000000
vt 1.000000 1.000000
vt 0.000000 0.000000
vn 0.000000 1.000000 0.000000
vn 0.000000 -1.000000 -0.000000
vn -1.000000 0.000000 0.000000
vn 0.000000 0.000000 -1.000000
vn 1.000000 0.000000 0.000000
vn 0.000000 -0.000000 1.000000
s off
f 1/1/1 3/2/1 2/3/1
f 4/1/2 6/2/2 5/3/2
f 7/4/3 6/3/3 8/1/3
f 1/4/4 5/3/4 6/1/4
f 5/1/5 3/2/5 4/3/5
f 7/1/6 4/2/6 3/3/6
f 7/4/1 3/2/1 1/1/1
f 8/4/2 6/2/2 4/1/2
f 1/2/3 6/3/3 7/4/3
f 2/2/4 5/3/4 1/4/4
f 2/4/5 3/2/5 5/1/5
f 8/4/6 4/2/6 7/1/6
