# Blender v2.71 (sub 0) OBJ File: ''
# www.blender.org
o Sphere
v -0.353553 -0.353553 -0.000000
v -0.326641 -0.353553 -0.135299
v -0.176777 -0.461940 -0.073223
v -0.461940 -0.191342 -0.000000
v -0.426777 -0.191342 -0.176777
v -0.500000 0.000000 0.000000
v -0.461940 0.000000 -0.191342
v -0.461940 0.191342 0.000000
v -0.426777 0.191342 -0.176777
v -0.353553 0.353553 0.000000
v -0.326641 0.353553 -0.135299
v -0.191342 0.461940 0.000000
v -0.176777 0.461940 -0.073223
v -0.250000 -0.353553 -0.250000
v -0.135299 -0.461940 -0.135299
v -0.326641 -0.191342 -0.326641
v -0.353553 0.000000 -0.353553
v -0.326641 0.191342 -0.326641
v -0.250000 0.353553 -0.250000
v -0.135299 0.461940 -0.135299
v -0.135299 -0.353553 -0.326641
v -0.073223 -0.461940 -0.176777
v -0.176777 -0.191342 -0.426777
v -0.191342 0.000000 -0.461940
v -0.176777 0.191342 -0.426777
v -0.135299 0.353553 -0.326641
v -0.073223 0.461940 -0.176777
v 0.000000 -0.353553 -0.353553
v 0.000000 -0.461940 -0.191342
v 0.000000 -0.191342 -0.461940
v 0.000000 0.000000 -0.500000
v 0.000000 0.191342 -0.461940
v 0.000000 0.353553 -0.353553
v 0.000000 0.461940 -0.191342
v 0.135299 -0.353553 -0.326641
v 0.073223 -0.461940 -0.176777
v 0.176777 -0.191342 -0.426777
v 0.191342 0.000000 -0.461940
v 0.176777 0.191342 -0.426777
v 0.135299 0.353553 -0.326641
v 0.073223 0.461940 -0.176777
v 0.250000 -0.353553 -0.250000
v 0.135299 -0.461940 -0.135299
v 0.326641 -0.191342 -0.326641
v 0.353553 0.000000 -0.353553
v 0.326641 0.191342 -0.326641
v 0.250000 0.353553 -0.250000
v 0.135299 0.461940 -0.135299
v 0.326641 -0.353553 -0.135299
v 0.176777 -0.461940 -0.073223
v 0.426777 -0.191342 -0.176777
v 0.461940 0.000000 -0.191342
v 0.426777 0.191342 -0.176777
v 0.326641 0.353553 -0.135299
v 0.176777 0.461940 -0.073223
v 0.353553 -0.353553 -0.000000
v 0.191342 -0.461940 -0.000000
v 0.461940 -0.191342 -0.000000
v 0.500000 0.000000 0.000000
v 0.461940 0.191342 0.000000
v 0.353553 0.353553 0.000000
v 0.191342 0.461940 0.000000
v 0.326640 -0.353553 0.135299
v 0.176777 -0.461940 0.073223
v 0.426776 -0.191342 0.176777
v 0.461939 -0.000000 0.191342
v 0.426776 0.191342 0.176777
v 0.326640 0.353553 0.135299
v 0.176777 0.461940 0.073223
v 0.250000 -0.353553 0.250000
v 0.135299 -0.461940 0.135299
v 0.326640 -0.191342 0.326641
v 0.353553 -0.000000 0.353553
v 0.326640 0.191342 0.326641
v 0.250000 0.353553 0.250000
v 0.135299 0.461940 0.135299
v 0.135299 -0.353553 0.326641
v 0.073223 -0.461940 0.176777
v 0.176776 -0.191342 0.426777
v 0.191341 -0.000000 0.461940
v 0.176776 0.191342 0.426777
v 0.135299 0.353553 0.326641
v 0.073223 0.461940 0.176777
v 0.000000 -0.353553 0.353553
v 0.000000 -0.461940 0.191342
v 0.000000 -0.191342 0.461940
v 0.000000 -0.000000 0.500000
v 0.000000 0.191342 0.461940
v 0.000000 0.353553 0.353553
v 0.000000 0.461940 0.191342
v -0.135299 -0.353553 0.326641
v -0.176777 -0.191342 0.426776
v -0.191342 -0.000000 0.461939
v -0.176777 0.191342 0.426776
v -0.135299 0.353553 0.326641
v -0.073223 0.461940 0.176777
v -0.250000 -0.353553 0.250000
v -0.135299 -0.461940 0.135299
v -0.326641 -0.191342 0.326640
v -0.353554 -0.000000 0.353553
v -0.326641 0.191342 0.326640
v -0.250000 0.353553 0.250000
v -0.135299 0.461940 0.135299
v -0.326641 -0.353553 0.135299
v -0.176777 -0.461940 0.073223
v -0.426777 -0.191342 0.176776
v -0.461940 -0.000000 0.191341
v -0.426777 0.191342 0.176776
v -0.326641 0.353553 0.135299
v -0.176777 0.461940 0.073223
v 0.000000 -0.500000 -0.000000
v -0.191342 -0.461940 -0.000000
v 0.000000 0.500000 0.000000
v -0.073223 -0.461940 0.176777
vt 0.250000 0.250000
vt 0.187500 0.250000
vt 0.187500 0.125000
vt 0.250000 0.375000
vt 0.187500 0.375000
vt 0.250000 0.500000
vt 0.187500 0.500000
vt 0.250000 0.625000
vt 0.187500 0.625000
vt 0.250000 0.750000
vt 0.187500 0.750000
vt 0.250000 0.875000
vt 0.187500 0.875000
vt 0.125000 0.250000
vt 0.125000 0.125000
vt 0.125000 0.375000
vt 0.125000 0.500000
vt 0.125000 0.625000
vt 0.125000 0.750000
vt 0.125000 0.875000
vt 0.062500 0.250000
vt 0.062500 0.125000
vt 0.062500 0.375000
vt 0.062500 0.500000
vt 0.062500 0.625000
vt 0.062500 0.750000
vt 0.062500 0.875000
vt 0.000000 0.250000
vt 0.000000 0.125000
vt 0.000000 0.375000
vt 0.000000 0.500000
vt 0.000000 0.625000
vt 0.000000 0.750000
vt 0.000000 0.875000
vt 1.000000 0.250000
vt 0.937500 0.250000
vt 0.937500 0.125000
vt 1.000000 0.375000
vt 0.937500 0.375000
vt 1.000000 0.500000
vt 0.937500 0.500000
vt 1.000000 0.625000
vt 0.937500 0.625000
vt 1.000000 0.750000
vt 0.937500 0.750000
vt 1.000000 0.875000
vt 0.937500 0.875000
vt 0.875000 0.250000
vt 0.875000 0.125000
vt 0.875000 0.375000
vt 0.875000 0.500000
vt 0.875000 0.625000
vt 0.875000 0.750000
vt 0.875000 0.875000
vt 0.812500 0.250000
vt 0.812500 0.125000
vt 0.812500 0.375000
vt 0.812500 0.500000
vt 0.812500 0.625000
vt 0.812500 0.750000
vt 0.812500 0.875000
vt 0.750000 0.250000
vt 0.750000 0.125000
vt 0.750000 0.375000
vt 0.750000 0.500000
vt 0.750000 0.625000
vt 0.750000 0.750000
vt 0.750000 0.875000
vt 0.687500 0.250000
vt 0.687500 0.125000
vt 0.687500 0.375000
vt 0.687500 0.500000
vt 0.687500 0.625000
vt 0.687500 0.750000
vt 0.687500 0.875000
vt 0.625000 0.250000
vt 0.625000 0.125000
vt 0.625000 0.375000
vt 0.625000 0.500000
vt 0.625000 0.625000
vt 0.625000 0.750000
vt 0.625000 0.875000
vt 0.562500 0.250000
vt 0.562500 0.125000
vt 0.562500 0.375000
vt 0.562500 0.500000
vt 0.562500 0.625000
vt 0.562500 0.750000
vt 0.562500 0.875000
vt 0.500000 0.250000
vt 0.500000 0.125000
vt 0.500000 0.375000
vt 0.500000 0.500000
vt 0.500000 0.625000
vt 0.500000 0.750000
vt 0.500000 0.875000
vt 0.437500 0.250000
vt 0.437500 0.375000
vt 0.437500 0.500000
vt 0.437500 0.625000
vt 0.437500 0.750000
vt 0.437500 0.875000
vt 0.375000 0.250000
vt 0.375000 0.125000
vt 0.375000 0.375000
vt 0.375000 0.500000
vt 0.375000 0.625000
vt 0.375000 0.750000
vt 0.375000 0.875000
vt 0.312500 0.250000
vt 0.312500 0.125000
vt 0.312500 0.375000
vt 0.312500 0.500000
vt 0.312500 0.625000
vt 0.312500 0.750000
vt 0.312500 0.875000
vt 0.307825 0.000000
vt 0.250000 0.125000
vt 0.265019 1.000000
vt 1.307825 0.000000
vt 1.000000 0.125000
vt 1.265019 1.000000
vt 0.437500 0.125000
vn -0.718800 -0.695200 0.000000
vn -0.664100 -0.695200 -0.275100
vn -0.372400 -0.915200 -0.154200
vn -0.927300 -0.374300 0.000000
vn -0.856700 -0.374300 -0.354800
vn -1.000000 0.000000 0.000000
vn -0.923900 0.000000 -0.382700
vn -0.927300 0.374300 0.000000
vn -0.856700 0.374300 -0.354800
vn -0.718800 0.695200 0.000000
vn -0.664100 0.695200 -0.275100
vn -0.403100 0.915100 0.000000
vn -0.372400 0.915200 -0.154200
vn -0.508300 -0.695200 -0.508300
vn -0.285000 -0.915200 -0.285000
vn -0.655700 -0.374300 -0.655700
vn -0.707100 0.000000 -0.707100
vn -0.655700 0.374300 -0.655700
vn -0.508300 0.695200 -0.508300
vn -0.285000 0.915200 -0.285000
vn -0.275100 -0.695200 -0.664100
vn -0.154200 -0.915200 -0.372400
vn -0.354800 -0.374300 -0.856700
vn -0.382700 0.000000 -0.923900
vn -0.354800 0.374300 -0.856700
vn -0.275100 0.695200 -0.664100
vn -0.154200 0.915200 -0.372400
vn 0.000000 -0.695200 -0.718800
vn 0.000000 -0.915100 -0.403100
vn 0.000000 -0.374300 -0.927300
vn 0.000000 0.000000 -1.000000
vn 0.000000 0.374300 -0.927300
vn 0.000000 0.695200 -0.718800
vn 0.000000 0.915200 -0.403100
vn 0.275100 -0.695200 -0.664100
vn 0.154200 -0.915200 -0.372400
vn 0.354800 -0.374300 -0.856700
vn 0.382700 0.000000 -0.923900
vn 0.354800 0.374300 -0.856700
vn 0.275100 0.695200 -0.664100
vn 0.154200 0.915200 -0.372400
vn 0.508300 -0.695200 -0.508300
vn 0.285000 -0.915200 -0.285000
vn 0.655700 -0.374300 -0.655700
vn 0.707100 0.000000 -0.707100
vn 0.655700 0.374300 -0.655700
vn 0.508300 0.695200 -0.508300
vn 0.285000 0.915200 -0.285000
vn 0.664100 -0.695200 -0.275100
vn 0.372400 -0.915200 -0.154200
vn 0.856700 -0.374300 -0.354800
vn 0.923900 0.000000 -0.382700
vn 0.856700 0.374300 -0.354800
vn 0.664100 0.695200 -0.275100
vn 0.372400 0.915200 -0.154200
vn 0.718800 -0.695200 0.000000
vn 0.403100 -0.915200 0.000000
vn 0.927300 -0.374300 0.000000
vn 1.000000 0.000000 0.000000
vn 0.927300 0.374300 0.000000
vn 0.718800 0.695200 0.000000
vn 0.403100 0.915100 0.000000
vn 0.664100 -0.695200 0.275100
vn 0.372400 -0.915100 0.154200
vn 0.856700 -0.374300 0.354800
vn 0.923900 0.000000 0.382700
vn 0.856700 0.374300 0.354800
vn 0.664100 0.695200 0.275100
vn 0.372400 0.915100 0.154200
vn 0.508300 -0.695200 0.508300
vn 0.285000 -0.915200 0.285000
vn 0.655700 -0.374300 0.655700
vn 0.707100 0.000000 0.707100
vn 0.655700 0.374300 0.655700
vn 0.508300 0.695200 0.508300
vn 0.285000 0.915200 0.285000
vn 0.275100 -0.695200 0.664100
vn 0.154200 -0.915200 0.372400
vn 0.354800 -0.374300 0.856700
vn 0.382700 0.000000 0.923900
vn 0.354800 0.374300 0.856700
vn 0.275100 0.695200 0.664100
vn 0.154200 0.915200 0.372400
vn 0.000000 -0.695200 0.718800
vn 0.000000 -0.915200 0.403100
vn 0.000000 -0.374300 0.927300
vn 0.000000 0.000000 1.000000
vn 0.000000 0.374300 0.927300
vn 0.000000 0.695200 0.718800
vn 0.000000 0.915100 0.403100
vn -0.275100 -0.695200 0.664100
vn -0.354800 -0.374300 0.856700
vn -0.382700 0.000000 0.923900
vn -0.354800 0.374300 0.856700
vn -0.275100 0.695200 0.664100
vn -0.154200 0.915200 0.372400
vn -0.508300 -0.695200 0.508300
vn -0.285000 -0.915200 0.285000
vn -0.655700 -0.374300 0.655700
vn -0.707100 0.000000 0.707100
vn -0.655700 0.374300 0.655700
vn -0.508300 0.695200 0.508300
vn -0.285000 0.915200 0.285000
vn -0.664100 -0.695200 0.275100
vn -0.372400 -0.915200 0.154200
vn -0.856700 -0.374300 0.354800
vn -0.923900 0.000000 0.382700
vn -0.856700 0.374300 0.354800
vn -0.664100 0.695200 0.275100
vn -0.372400 0.915200 0.154200
vn 0.000000 -1.000000 0.000000
vn -0.403100 -0.915100 0.000000
vn 0.000000 1.000000 0.000000
vn -0.154200 -0.915200 0.372400
s 1
f 1/1/1 2/2/2 3/3/3
f 4/4/4 5/5/5 2/2/2
f 6/6/6 7/7/7 5/5/5
f 8/8/8 9/9/9 7/7/7
f 10/10/10 11/11/11 9/9/9
f 12/12/12 13/13/13 11/11/11
f 2/2/2 14/14/14 15/15/15
f 2/2/2 5/5/5 16/16/16
f 5/5/5 7/7/7 17/17/17
f 7/7/7 9/9/9 18/18/18
f 11/11/11 19/19/19 18/18/18
f 13/13/13 20/20/20 19/19/19
f 14/14/14 21/21/21 22/22/22
f 14/14/14 16/16/16 23/23/23
f 16/16/16 17/17/17 24/24/24
f 17/17/17 18/18/18 25/25/25
f 19/19/19 26/26/26 25/25/25
f 19/19/19 20/20/20 27/27/27
f 21/21/21 28/28/28 29/29/29
f 23/23/23 30/30/30 28/28/28
f 24/24/24 31/31/31 30/30/30
f 25/25/25 32/32/32 31/31/31
f 26/26/26 33/33/33 32/32/32
f 27/27/27 34/34/34 33/33/33
f 28/35/28 35/36/35 36/37/36
f 30/38/30 37/39/37 35/36/35
f 31/40/31 38/41/38 37/39/37
f 31/40/31 32/42/32 39/43/39
f 32/42/32 33/44/33 40/45/40
f 34/46/34 41/47/41 40/45/40
f 35/36/35 42/48/42 43/49/43
f 37/39/37 44/50/44 42/48/42
f 38/41/38 45/51/45 44/50/44
f 38/41/38 39/43/39 46/52/46
f 40/45/40 47/53/47 46/52/46
f 41/47/41 48/54/48 47/53/47
f 42/48/42 49/55/49 50/56/50
f 44/50/44 51/57/51 49/55/49
f 45/51/45 52/58/52 51/57/51
f 46/52/46 53/59/53 52/58/52
f 47/53/47 54/60/54 53/59/53
f 48/54/48 55/61/55 54/60/54
f 49/55/49 56/62/56 57/63/57
f 51/57/51 58/64/58 56/62/56
f 52/58/52 59/65/59 58/64/58
f 53/59/53 60/66/60 59/65/59
f 54/60/54 61/67/61 60/66/60
f 54/60/54 55/61/55 62/68/62
f 56/62/56 63/69/63 64/70/64
f 58/64/58 65/71/65 63/69/63
f 59/65/59 66/72/66 65/71/65
f 59/65/59 60/66/60 67/73/67
f 61/67/61 68/74/68 67/73/67
f 62/68/62 69/75/69 68/74/68
f 63/69/63 70/76/70 71/77/71
f 65/71/65 72/78/72 70/76/70
f 66/72/66 73/79/73 72/78/72
f 67/73/67 74/80/74 73/79/73
f 67/73/67 68/74/68 75/81/75
f 69/75/69 76/82/76 75/81/75
f 70/76/70 77/83/77 78/84/78
f 72/78/72 79/85/79 77/83/77
f 73/79/73 80/86/80 79/85/79
f 74/80/74 81/87/81 80/86/80
f 74/80/74 75/81/75 82/88/82
f 76/82/76 83/89/83 82/88/82
f 77/83/77 84/90/84 85/91/85
f 77/83/77 79/85/79 86/92/86
f 79/85/79 80/86/80 87/93/87
f 81/87/81 88/94/88 87/93/87
f 82/88/82 89/95/89 88/94/88
f 83/89/83 90/96/90 89/95/89
f 85/91/85 84/90/84 91/97/91
f 86/92/86 92/98/92 91/97/91
f 86/92/86 87/93/87 93/99/93
f 88/94/88 94/100/94 93/99/93
f 89/95/89 95/101/95 94/100/94
f 90/96/90 96/102/96 95/101/95
f 91/97/91 97/103/97 98/104/98
f 91/97/91 92/98/92 99/105/99
f 92/98/92 93/99/93 100/106/100
f 94/100/94 101/107/101 100/106/100
f 94/100/94 95/101/95 102/108/102
f 96/102/96 103/109/103 102/108/102
f 97/103/97 104/110/104 105/111/105
f 99/105/99 106/112/106 104/110/104
f 99/105/99 100/106/100 107/113/107
f 101/107/101 108/114/108 107/113/107
f 101/107/101 102/108/102 109/115/109
f 103/109/103 110/116/110 109/115/109
f 111/117/111 112/118/112 3/3/3
f 12/12/12 113/119/113 13/13/13
f 111/117/111 3/3/3 15/15/15
f 13/13/13 113/119/113 20/20/20
f 111/117/111 15/15/15 22/22/22
f 20/20/20 113/119/113 27/27/27
f 111/117/111 22/22/22 29/29/29
f 27/27/27 113/119/113 34/34/34
f 111/120/111 29/121/29 36/37/36
f 34/46/34 113/122/113 41/47/41
f 111/120/111 36/37/36 43/49/43
f 41/47/41 113/122/113 48/54/48
f 111/120/111 43/49/43 50/56/50
f 48/54/48 113/122/113 55/61/55
f 111/120/111 50/56/50 57/63/57
f 55/61/55 113/122/113 62/68/62
f 111/117/111 57/63/57 64/70/64
f 62/68/62 113/119/113 69/75/69
f 111/117/111 64/70/64 71/77/71
f 69/75/69 113/119/113 76/82/76
f 111/117/111 71/77/71 78/84/78
f 76/82/76 113/119/113 83/89/83
f 111/117/111 78/84/78 85/91/85
f 83/89/83 113/119/113 90/96/90
f 111/117/111 85/91/85 114/123/114
f 90/96/90 113/119/113 96/102/96
f 111/117/111 114/123/114 98/104/98
f 96/102/96 113/119/113 103/109/103
f 111/117/111 98/104/98 105/111/105
f 103/109/103 113/119/113 110/116/110
f 111/117/111 105/111/105 112/118/112
f 104/110/104 1/1/1 105/111/105
f 104/110/104 106/112/106 4/4/4
f 107/113/107 6/6/6 4/4/4
f 108/114/108 8/8/8 6/6/6
f 109/115/109 10/10/10 8/8/8
f 110/116/110 12/12/12 10/10/10
f 110/116/110 113/119/113 12/12/12
f 112/118/112 1/1/1 3/3/3
f 1/1/1 4/4/4 2/2/2
f 4/4/4 6/6/6 5/5/5
f 6/6/6 8/8/8 7/7/7
f 8/8/8 10/10/10 9/9/9
f 10/10/10 12/12/12 11/11/11
f 3/3/3 2/2/2 15/15/15
f 14/14/14 2/2/2 16/16/16
f 16/16/16 5/5/5 17/17/17
f 17/17/17 7/7/7 18/18/18
f 9/9/9 11/11/11 18/18/18
f 11/11/11 13/13/13 19/19/19
f 15/15/15 14/14/14 22/22/22
f 21/21/21 14/14/14 23/23/23
f 23/23/23 16/16/16 24/24/24
f 24/24/24 17/17/17 25/25/25
f 18/18/18 19/19/19 25/25/25
f 26/26/26 19/19/19 27/27/27
f 22/22/22 21/21/21 29/29/29
f 21/21/21 23/23/23 28/28/28
f 23/23/23 24/24/24 30/30/30
f 24/24/24 25/25/25 31/31/31
f 25/25/25 26/26/26 32/32/32
f 26/26/26 27/27/27 33/33/33
f 29/121/29 28/35/28 36/37/36
f 28/35/28 30/38/30 35/36/35
f 30/38/30 31/40/31 37/39/37
f 38/41/38 31/40/31 39/43/39
f 39/43/39 32/42/32 40/45/40
f 33/44/33 34/46/34 40/45/40
f 36/37/36 35/36/35 43/49/43
f 35/36/35 37/39/37 42/48/42
f 37/39/37 38/41/38 44/50/44
f 45/51/45 38/41/38 46/52/46
f 39/43/39 40/45/40 46/52/46
f 40/45/40 41/47/41 47/53/47
f 43/49/43 42/48/42 50/56/50
f 42/48/42 44/50/44 49/55/49
f 44/50/44 45/51/45 51/57/51
f 45/51/45 46/52/46 52/58/52
f 46/52/46 47/53/47 53/59/53
f 47/53/47 48/54/48 54/60/54
f 50/56/50 49/55/49 57/63/57
f 49/55/49 51/57/51 56/62/56
f 51/57/51 52/58/52 58/64/58
f 52/58/52 53/59/53 59/65/59
f 53/59/53 54/60/54 60/66/60
f 61/67/61 54/60/54 62/68/62
f 57/63/57 56/62/56 64/70/64
f 56/62/56 58/64/58 63/69/63
f 58/64/58 59/65/59 65/71/65
f 66/72/66 59/65/59 67/73/67
f 60/66/60 61/67/61 67/73/67
f 61/67/61 62/68/62 68/74/68
f 64/70/64 63/69/63 71/77/71
f 63/69/63 65/71/65 70/76/70
f 65/71/65 66/72/66 72/78/72
f 66/72/66 67/73/67 73/79/73
f 74/80/74 67/73/67 75/81/75
f 68/74/68 69/75/69 75/81/75
f 71/77/71 70/76/70 78/84/78
f 70/76/70 72/78/72 77/83/77
f 72/78/72 73/79/73 79/85/79
f 73/79/73 74/80/74 80/86/80
f 81/87/81 74/80/74 82/88/82
f 75/81/75 76/82/76 82/88/82
f 78/84/78 77/83/77 85/91/85
f 84/90/84 77/83/77 86/92/86
f 86/92/86 79/85/79 87/93/87
f 80/86/80 81/87/81 87/93/87
f 81/87/81 82/88/82 88/94/88
f 82/88/82 83/89/83 89/95/89
f 114/123/114 85/91/85 91/97/91
f 84/90/84 86/92/86 91/97/91
f 92/98/92 86/92/86 93/99/93
f 87/93/87 88/94/88 93/99/93
f 88/94/88 89/95/89 94/100/94
f 89/95/89 90/96/90 95/101/95
f 114/123/114 91/97/91 98/104/98
f 97/103/97 91/97/91 99/105/99
f 99/105/99 92/98/92 100/106/100
f 93/99/93 94/100/94 100/106/100
f 101/107/101 94/100/94 102/108/102
f 95/101/95 96/102/96 102/108/102
f 98/104/98 97/103/97 105/111/105
f 97/103/97 99/105/99 104/110/104
f 106/112/106 99/105/99 107/113/107
f 100/106/100 101/107/101 107/113/107
f 108/114/108 101/107/101 109/115/109
f 102/108/102 103/109/103 109/115/109
f 105/111/105 1/1/1 112/118/112
f 1/1/1 104/110/104 4/4/4
f 106/112/106 107/113/107 4/4/4
f 107/113/107 108/114/108 6/6/6
f 108/114/108 109/115/109 8/8/8
f 109/115/109 110/116/110 10/10/10
